<mxfile host="app.diagrams.net" modified="2023-07-21T11:53:06.608Z" agent="Mozilla/5.0 (Windows NT 10.0; Win64; x64; rv:109.0) Gecko/20100101 Firefox/116.0" etag="YTKr90bVLP9nWMF0DzqJ" version="21.5.2" type="device">
  <diagram name="Page-1" id="ya0CKT0qAcse2HXHP5nK">
    <mxGraphModel dx="2074" dy="1106" grid="1" gridSize="10" guides="1" tooltips="1" connect="1" arrows="1" fold="1" page="1" pageScale="1" pageWidth="827" pageHeight="1169" math="0" shadow="0">
      <root>
        <mxCell id="0" />
        <mxCell id="1" parent="0" />
        <mxCell id="TuhBdciGU9eDg3nPLKS7-1" value="" style="rounded=0;whiteSpace=wrap;html=1;movable=1;resizable=1;rotatable=1;deletable=1;editable=1;locked=0;connectable=1;labelBackgroundColor=none;" parent="1" vertex="1">
          <mxGeometry x="100" y="120" width="600" height="770" as="geometry" />
        </mxCell>
        <mxCell id="TuhBdciGU9eDg3nPLKS7-7" style="rounded=0;orthogonalLoop=1;jettySize=auto;html=1;exitX=1;exitY=0.3333333333333333;exitDx=0;exitDy=0;exitPerimeter=0;entryX=0;entryY=0.5;entryDx=0;entryDy=0;endArrow=none;endFill=0;labelBackgroundColor=none;" parent="1" source="TuhBdciGU9eDg3nPLKS7-2" target="TuhBdciGU9eDg3nPLKS7-3" edge="1">
          <mxGeometry relative="1" as="geometry" />
        </mxCell>
        <mxCell id="TuhBdciGU9eDg3nPLKS7-9" style="rounded=0;orthogonalLoop=1;jettySize=auto;html=1;exitX=1;exitY=0.3333333333333333;exitDx=0;exitDy=0;exitPerimeter=0;entryX=0;entryY=0.5;entryDx=0;entryDy=0;endArrow=none;endFill=0;labelBackgroundColor=none;" parent="1" source="TuhBdciGU9eDg3nPLKS7-2" target="TuhBdciGU9eDg3nPLKS7-8" edge="1">
          <mxGeometry relative="1" as="geometry" />
        </mxCell>
        <mxCell id="TuhBdciGU9eDg3nPLKS7-40" style="edgeStyle=orthogonalEdgeStyle;rounded=0;orthogonalLoop=1;jettySize=auto;html=1;exitX=1;exitY=0.3333333333333333;exitDx=0;exitDy=0;exitPerimeter=0;entryX=0;entryY=0.5;entryDx=0;entryDy=0;endArrow=none;endFill=0;labelBackgroundColor=none;" parent="1" source="TuhBdciGU9eDg3nPLKS7-2" target="TuhBdciGU9eDg3nPLKS7-38" edge="1">
          <mxGeometry relative="1" as="geometry" />
        </mxCell>
        <mxCell id="TuhBdciGU9eDg3nPLKS7-2" value="Visiteur" style="shape=umlActor;verticalLabelPosition=bottom;verticalAlign=top;html=1;outlineConnect=0;labelBackgroundColor=none;" parent="1" vertex="1">
          <mxGeometry x="193" y="350" width="30" height="60" as="geometry" />
        </mxCell>
        <mxCell id="TuhBdciGU9eDg3nPLKS7-5" style="rounded=0;orthogonalLoop=1;jettySize=auto;html=1;exitX=1;exitY=0.5;exitDx=0;exitDy=0;entryX=0;entryY=0.5;entryDx=0;entryDy=0;dashed=1;labelBackgroundColor=none;" parent="1" source="TuhBdciGU9eDg3nPLKS7-3" target="TuhBdciGU9eDg3nPLKS7-4" edge="1">
          <mxGeometry relative="1" as="geometry" />
        </mxCell>
        <mxCell id="TuhBdciGU9eDg3nPLKS7-3" value="Se connecter" style="ellipse;whiteSpace=wrap;html=1;labelBackgroundColor=none;" parent="1" vertex="1">
          <mxGeometry x="356" y="210" width="120" height="80" as="geometry" />
        </mxCell>
        <mxCell id="TuhBdciGU9eDg3nPLKS7-4" value="S&#39;inscrire" style="ellipse;whiteSpace=wrap;html=1;labelBackgroundColor=none;" parent="1" vertex="1">
          <mxGeometry x="536" y="170" width="120" height="80" as="geometry" />
        </mxCell>
        <mxCell id="TuhBdciGU9eDg3nPLKS7-6" value="&amp;lt;&amp;lt;include&amp;gt;&amp;gt;" style="text;html=1;align=center;verticalAlign=middle;resizable=0;points=[];autosize=1;strokeColor=none;fillColor=none;labelBackgroundColor=none;" parent="1" vertex="1">
          <mxGeometry x="440" y="180" width="90" height="30" as="geometry" />
        </mxCell>
        <mxCell id="7OYBJQxFxir3evCWqmyz-5" style="edgeStyle=orthogonalEdgeStyle;rounded=0;orthogonalLoop=1;jettySize=auto;html=1;dashed=1;labelBackgroundColor=none;" parent="1" source="TuhBdciGU9eDg3nPLKS7-8" target="TuhBdciGU9eDg3nPLKS7-38" edge="1">
          <mxGeometry relative="1" as="geometry" />
        </mxCell>
        <mxCell id="TuhBdciGU9eDg3nPLKS7-8" value="Consulter les discussions" style="ellipse;whiteSpace=wrap;html=1;labelBackgroundColor=none;" parent="1" vertex="1">
          <mxGeometry x="356" y="450" width="120" height="80" as="geometry" />
        </mxCell>
        <mxCell id="TuhBdciGU9eDg3nPLKS7-16" style="rounded=0;orthogonalLoop=1;jettySize=auto;html=1;exitX=0.5;exitY=0;exitDx=0;exitDy=0;entryX=0.5;entryY=1;entryDx=0;entryDy=0;dashed=1;labelBackgroundColor=none;" parent="1" source="TuhBdciGU9eDg3nPLKS7-10" target="TuhBdciGU9eDg3nPLKS7-8" edge="1">
          <mxGeometry relative="1" as="geometry" />
        </mxCell>
        <mxCell id="TuhBdciGU9eDg3nPLKS7-10" value="Ajouter un message Ã  une discussion" style="ellipse;whiteSpace=wrap;html=1;labelBackgroundColor=none;" parent="1" vertex="1">
          <mxGeometry x="356" y="572.5" width="120" height="80" as="geometry" />
        </mxCell>
        <mxCell id="TuhBdciGU9eDg3nPLKS7-13" style="rounded=0;orthogonalLoop=1;jettySize=auto;html=1;exitX=1;exitY=0.3333333333333333;exitDx=0;exitDy=0;exitPerimeter=0;entryX=0;entryY=0.5;entryDx=0;entryDy=0;endArrow=none;endFill=0;labelBackgroundColor=none;" parent="1" source="TuhBdciGU9eDg3nPLKS7-11" target="TuhBdciGU9eDg3nPLKS7-10" edge="1">
          <mxGeometry relative="1" as="geometry" />
        </mxCell>
        <mxCell id="TuhBdciGU9eDg3nPLKS7-41" style="edgeStyle=orthogonalEdgeStyle;rounded=0;orthogonalLoop=1;jettySize=auto;html=1;exitX=0.5;exitY=0;exitDx=0;exitDy=0;exitPerimeter=0;dashed=1;labelBackgroundColor=none;" parent="1" source="TuhBdciGU9eDg3nPLKS7-11" edge="1">
          <mxGeometry relative="1" as="geometry">
            <mxPoint x="207.72413793103442" y="440" as="targetPoint" />
          </mxGeometry>
        </mxCell>
        <mxCell id="7OYBJQxFxir3evCWqmyz-9" style="rounded=0;orthogonalLoop=1;jettySize=auto;html=1;exitX=1;exitY=0.3333333333333333;exitDx=0;exitDy=0;exitPerimeter=0;entryX=0;entryY=0.5;entryDx=0;entryDy=0;endArrow=none;endFill=0;labelBackgroundColor=none;" parent="1" source="TuhBdciGU9eDg3nPLKS7-11" target="TuhBdciGU9eDg3nPLKS7-18" edge="1">
          <mxGeometry relative="1" as="geometry" />
        </mxCell>
        <mxCell id="TuhBdciGU9eDg3nPLKS7-11" value="Utilisateur" style="shape=umlActor;verticalLabelPosition=bottom;verticalAlign=top;html=1;outlineConnect=0;labelBackgroundColor=none;" parent="1" vertex="1">
          <mxGeometry x="193" y="652.5" width="30" height="60" as="geometry" />
        </mxCell>
        <mxCell id="TuhBdciGU9eDg3nPLKS7-18" value="Ajouter une figure" style="ellipse;whiteSpace=wrap;html=1;labelBackgroundColor=none;" parent="1" vertex="1">
          <mxGeometry x="356" y="722.5" width="120" height="80" as="geometry" />
        </mxCell>
        <mxCell id="TuhBdciGU9eDg3nPLKS7-23" value="&amp;lt;&amp;lt;include&amp;gt;&amp;gt;" style="text;html=1;align=center;verticalAlign=middle;resizable=0;points=[];autosize=1;strokeColor=none;fillColor=none;labelBackgroundColor=none;" parent="1" vertex="1">
          <mxGeometry x="111" y="532.5" width="90" height="30" as="geometry" />
        </mxCell>
        <mxCell id="TuhBdciGU9eDg3nPLKS7-28" style="rounded=0;orthogonalLoop=1;jettySize=auto;html=1;exitX=0;exitY=0.5;exitDx=0;exitDy=0;entryX=1;entryY=0.5;entryDx=0;entryDy=0;dashed=1;labelBackgroundColor=none;" parent="1" source="TuhBdciGU9eDg3nPLKS7-24" target="TuhBdciGU9eDg3nPLKS7-18" edge="1">
          <mxGeometry relative="1" as="geometry" />
        </mxCell>
        <mxCell id="TuhBdciGU9eDg3nPLKS7-24" value="Modifier une figure" style="ellipse;whiteSpace=wrap;html=1;labelBackgroundColor=none;" parent="1" vertex="1">
          <mxGeometry x="536" y="662.5" width="120" height="80" as="geometry" />
        </mxCell>
        <mxCell id="TuhBdciGU9eDg3nPLKS7-26" style="rounded=0;orthogonalLoop=1;jettySize=auto;html=1;exitX=0;exitY=0.5;exitDx=0;exitDy=0;entryX=1;entryY=0.5;entryDx=0;entryDy=0;dashed=1;labelBackgroundColor=none;" parent="1" source="TuhBdciGU9eDg3nPLKS7-25" target="TuhBdciGU9eDg3nPLKS7-18" edge="1">
          <mxGeometry relative="1" as="geometry" />
        </mxCell>
        <mxCell id="TuhBdciGU9eDg3nPLKS7-25" value="Supprimer un figure" style="ellipse;whiteSpace=wrap;html=1;labelBackgroundColor=none;" parent="1" vertex="1">
          <mxGeometry x="536" y="792.5" width="120" height="80" as="geometry" />
        </mxCell>
        <mxCell id="TuhBdciGU9eDg3nPLKS7-30" value="&amp;lt;&amp;lt;extends&amp;gt;&amp;gt;" style="text;html=1;align=center;verticalAlign=middle;resizable=0;points=[];autosize=1;strokeColor=none;fillColor=none;labelBackgroundColor=none;" parent="1" vertex="1">
          <mxGeometry x="446" y="687.5" width="90" height="30" as="geometry" />
        </mxCell>
        <mxCell id="TuhBdciGU9eDg3nPLKS7-31" value="&amp;lt;&amp;lt;include&amp;gt;&amp;gt;" style="text;html=1;align=center;verticalAlign=middle;resizable=0;points=[];autosize=1;strokeColor=none;fillColor=none;labelBackgroundColor=none;" parent="1" vertex="1">
          <mxGeometry x="423" y="532.5" width="90" height="30" as="geometry" />
        </mxCell>
        <mxCell id="TuhBdciGU9eDg3nPLKS7-32" value="&amp;lt;&amp;lt;extends&amp;gt;&amp;gt;" style="text;html=1;align=center;verticalAlign=middle;resizable=0;points=[];autosize=1;strokeColor=none;fillColor=none;labelBackgroundColor=none;" parent="1" vertex="1">
          <mxGeometry x="446" y="817.5" width="90" height="30" as="geometry" />
        </mxCell>
        <mxCell id="TuhBdciGU9eDg3nPLKS7-38" value="Consulter les figures" style="ellipse;whiteSpace=wrap;html=1;labelBackgroundColor=none;" parent="1" vertex="1">
          <mxGeometry x="356" y="330" width="120" height="80" as="geometry" />
        </mxCell>
        <mxCell id="TuhBdciGU9eDg3nPLKS7-42" value="SnowTricks" style="text;html=1;align=center;verticalAlign=middle;resizable=0;points=[];autosize=1;strokeColor=none;fillColor=none;labelBackgroundColor=none;" parent="1" vertex="1">
          <mxGeometry x="610" y="120" width="90" height="30" as="geometry" />
        </mxCell>
        <mxCell id="7OYBJQxFxir3evCWqmyz-3" style="rounded=0;orthogonalLoop=1;jettySize=auto;html=1;dashed=1;labelBackgroundColor=none;" parent="1" source="7OYBJQxFxir3evCWqmyz-1" target="TuhBdciGU9eDg3nPLKS7-3" edge="1">
          <mxGeometry relative="1" as="geometry" />
        </mxCell>
        <mxCell id="7OYBJQxFxir3evCWqmyz-1" value="&lt;div&gt;RÃ©initialiser&lt;/div&gt;&lt;div&gt;le mot de passe&lt;/div&gt;" style="ellipse;whiteSpace=wrap;html=1;labelBackgroundColor=none;" parent="1" vertex="1">
          <mxGeometry x="536" y="270" width="120" height="80" as="geometry" />
        </mxCell>
        <mxCell id="7OYBJQxFxir3evCWqmyz-4" value="&amp;lt;&amp;lt;extends&amp;gt;&amp;gt;" style="text;html=1;align=center;verticalAlign=middle;resizable=0;points=[];autosize=1;strokeColor=none;fillColor=none;labelBackgroundColor=none;" parent="1" vertex="1">
          <mxGeometry x="440" y="295" width="90" height="30" as="geometry" />
        </mxCell>
        <mxCell id="7OYBJQxFxir3evCWqmyz-6" value="&amp;lt;&amp;lt;include&amp;gt;&amp;gt;" style="text;html=1;align=center;verticalAlign=middle;resizable=0;points=[];autosize=1;strokeColor=none;fillColor=none;labelBackgroundColor=none;" parent="1" vertex="1">
          <mxGeometry x="423" y="410" width="90" height="30" as="geometry" />
        </mxCell>
      </root>
    </mxGraphModel>
  </diagram>
</mxfile>
